<svg id="Layer_1" height="512" viewBox="0 0 512 512" width="512" xmlns="http://www.w3.org/2000/svg" data-name="Layer 1"><path d="m16 120v297.82a40.156 40.156 0 0 0 40 40.18h400a40.156 40.156 0 0 0 40-40.18v-297.82z" fill="#80aaff"/><path d="m456 54h-400a40.156 40.156 0 0 0 -40 40.18v25.82h480v-25.82a40.156 40.156 0 0 0 -40-40.18z" fill="#d4e1f4"/><path d="m56 417.82v-297.82h-40v297.82a40.156 40.156 0 0 0 40 40.18h40a40.156 40.156 0 0 1 -40-40.18z" fill="#6a95d3"/><path d="m56 94.18a40.156 40.156 0 0 1 40-40.18h-40a40.156 40.156 0 0 0 -40 40.18v25.82h40z" fill="#b6c3d3"/><path d="m57.435 98.672a8.511 8.511 0 1 1 8.509-8.511 8.521 8.521 0 0 1 -8.509 8.511z" fill="#fb6771"/><path d="m89.091 98.672a8.511 8.511 0 1 1 8.509-8.511 8.521 8.521 0 0 1 -8.509 8.511z" fill="#eadf53"/><path d="m121.748 98.672a8.511 8.511 0 1 1 8.51-8.511 8.521 8.521 0 0 1 -8.51 8.511z" fill="#5fcda4"/><path d="m108.242 228.036a6 6 0 0 0 -8.484 0l-44.721 44.721a6 6 0 0 0 0 8.486l44.721 44.721a6 6 0 0 0 8.484-8.485l-40.477-40.479 40.477-40.479a6 6 0 0 0 0-8.485z" fill="#eadf53"/><path d="m224.476 272.757-44.721-44.721a6 6 0 0 0 -8.484 8.485l40.477 40.479-40.477 40.479a6 6 0 1 0 8.484 8.485l44.721-44.721a6 6 0 0 0 0-8.486z" fill="#eadf53"/><path d="m158.663 198.736a6 6 0 0 0 -7.241 4.423l-34.995 144.864a6 6 0 1 0 11.664 2.818l35-144.864a6 6 0 0 0 -4.428-7.241z" fill="#eadf53"/><g fill="#547eaf"><path d="m258.805 223h-3a6 6 0 0 1 0-12h3a6 6 0 0 1 0 12z"/><path d="m299.035 223h-10.318a6 6 0 0 1 0-12h10.318a6 6 0 1 1 0 12z"/><path d="m452.721 223h-123.289a6 6 0 0 1 0-12h123.289a6 6 0 0 1 0 12z"/><path d="m258.805 263h-3a6 6 0 0 1 0-12h3a6 6 0 1 1 0 12z"/><path d="m299.035 263h-10.318a6 6 0 0 1 0-12h10.318a6 6 0 1 1 0 12z"/><path d="m452.721 263h-123.289a6 6 0 0 1 0-12h123.289a6 6 0 0 1 0 12z"/><path d="m258.805 303h-3a6 6 0 0 1 0-12h3a6 6 0 1 1 0 12z"/><path d="m299.035 303h-10.318a6 6 0 0 1 0-12h10.318a6 6 0 1 1 0 12z"/><path d="m452.721 303h-123.289a6 6 0 0 1 0-12h123.289a6 6 0 0 1 0 12z"/><path d="m258.805 343h-3a6 6 0 0 1 0-12h3a6 6 0 1 1 0 12z"/><path d="m299.035 343h-10.318a6 6 0 0 1 0-12h10.318a6 6 0 1 1 0 12z"/><path d="m452.721 343h-123.289a6 6 0 0 1 0-12h123.289a6 6 0 0 1 0 12z"/></g><path d="m40.894 259.889a6 6 0 0 1 -6-6v-84.572a6 6 0 0 1 12 0v84.572a6 6 0 0 1 -6 6z" fill="#f4f8fc"/><path d="m40.894 156.667a6 6 0 0 1 -6-6v-4.614a6 6 0 0 1 12 0v4.614a6 6 0 0 1 -6 6z" fill="#f4f8fc"/></svg>