<svg id="Layer_1" data-name="Layer 1" xmlns="http://www.w3.org/2000/svg" viewBox="0 0 170.39 43.02"><defs>
<style>.cls-1,.cls-2{fill:#11AB7C;}.cls-2{font-size:21px;font-family:Futura-Bold, Futura;font-weight:700;}.cls-3{letter-spacing:0.01em;}.cls-4{letter-spacing:-0.03em;}.cls-5{letter-spacing:-0.03em;}</style></defs><title>Logo</title><polygon class="cls-1" points="32.28 9.43 17.4 0.84 2.52 9.43 2.52 9.43 2.52 9.43 2.52 14.61 2.52 18.97 2.52 28.35 2.52 33.03 32.28 33.03 32.28 28.35 32.28 23.66 32.28 18.97 27.59 18.97 17.4 18.97 17.4 23.66 27.59 23.66 27.59 28.35 7.21 28.35 7.21 18.97 7.21 14.61 7.21 12.02 17.4 6.14 17.4 4.97 17.4 6.14 27.59 12.02 27.59 14.61 32.28 14.61 32.28 9.43 32.28 9.43 32.28 9.43"/><text class="cls-2" transform="translate(40.09 25.81)">Gua<tspan class="cls-3" x="47.25" y="0">r</tspan><tspan x="57.16" y="0">an</tspan><tspan class="cls-4" x="85.83" y="0">k</tspan><tspan class="cls-5" x="99.83" y="0">e</tspan><tspan x="112.85" y="0">y</tspan></text></svg>